<?xml version="1.0" standalone="no"?>
<!DOCTYPE svg PUBLIC "-//W3C//DTD SVG 20010904//EN"
 "http://www.w3.org/TR/2001/REC-SVG-20010904/DTD/svg10.dtd">
<svg version="1.0" xmlns="http://www.w3.org/2000/svg"
 width="321.000000pt" height="321.000000pt" viewBox="0 0 321.000000 321.000000"
 preserveAspectRatio="xMidYMid meet">
<metadata>
Created by potrace 1.14, written by Peter Selinger 2001-2017
</metadata>
<g transform="translate(0.000000,321.000000) scale(0.100000,-0.100000)"
fill="#000000" stroke="none">
<path d="M1357 3100 c-45 -12 -111 -44 -154 -77 -90 -68 -98 -222 -19 -327
l34 -44 -41 -6 c-22 -4 -73 -20 -113 -37 -78 -33 -286 -153 -338 -195 -139
-115 -253 -267 -294 -394 -30 -91 -48 -200 -56 -330 -4 -64 18 -236 39 -297
l13 -42 -24 9 c-44 17 -113 19 -148 5 -80 -34 -132 -125 -124 -219 10 -120
106 -206 229 -206 32 0 61 5 64 10 16 26 25 4 25 -59 0 -157 148 -601 235
-706 l17 -20 -8 20 c-22 61 -53 145 -67 180 -31 78 -57 181 -65 258 -5 42 -6
77 -4 77 2 0 32 -22 66 -48 59 -48 171 -122 182 -122 3 0 31 -12 62 -26 148
-68 357 -125 524 -143 139 -16 357 -13 468 4 268 43 590 185 723 320 26 27 47
46 47 43 0 -2 -11 -38 -25 -79 -55 -159 -116 -429 -114 -508 1 -69 17 -100 18
-35 2 101 51 262 154 499 67 155 99 249 112 322 l7 43 28 -15 c75 -39 183 -3
237 78 64 96 69 190 14 275 -18 28 -49 63 -69 79 -31 24 -46 28 -97 28 -33 0
-69 -4 -79 -9 -17 -8 -18 -6 -12 15 4 13 13 91 19 172 20 270 -10 431 -126
667 -45 91 -63 117 -142 195 -49 50 -116 105 -147 123 -79 47 -184 82 -245 82
-50 0 -67 10 -42 26 21 13 49 89 49 135 0 63 -25 141 -55 172 -81 80 -252 96
-390 37 -38 -16 -50 -18 -68 -7 -12 6 -24 15 -27 18 -3 3 -27 18 -55 33 -56
32 -150 43 -218 26z"/>
</g>
</svg>
